<mxfile host="app.diagrams.net" modified="2023-06-21T17:50:20.771Z" agent="Mozilla/5.0 (Windows NT 10.0; Win64; x64) AppleWebKit/537.36 (KHTML, like Gecko) Chrome/114.0.0.0 Safari/537.36 Edg/114.0.1823.51" etag="08UCiKZswaT4cYuS9Zl2" version="21.5.0" type="device">
  <diagram name="Página-1" id="lC0knYLyYiYp1UCPkx4M">
    <mxGraphModel dx="1963" dy="623" grid="1" gridSize="10" guides="1" tooltips="1" connect="1" arrows="1" fold="1" page="1" pageScale="1" pageWidth="827" pageHeight="1169" math="0" shadow="0">
      <root>
        <mxCell id="0" />
        <mxCell id="1" parent="0" />
        <mxCell id="IcWSumV9PIVV3C72BWcb-28" style="edgeStyle=orthogonalEdgeStyle;rounded=0;orthogonalLoop=1;jettySize=auto;html=1;entryX=0.5;entryY=0;entryDx=0;entryDy=0;" edge="1" parent="1" source="d0bv2SDJFpHMP59VthyJ-1" target="IcWSumV9PIVV3C72BWcb-27">
          <mxGeometry relative="1" as="geometry" />
        </mxCell>
        <mxCell id="d0bv2SDJFpHMP59VthyJ-1" value="Cliente" style="whiteSpace=wrap;html=1;align=center;fillColor=#fff2cc;strokeColor=#d6b656;" parent="1" vertex="1">
          <mxGeometry x="364" y="120" width="100" height="40" as="geometry" />
        </mxCell>
        <mxCell id="IcWSumV9PIVV3C72BWcb-8" style="edgeStyle=orthogonalEdgeStyle;rounded=0;orthogonalLoop=1;jettySize=auto;html=1;entryX=0;entryY=0.5;entryDx=0;entryDy=0;" edge="1" parent="1" source="IcWSumV9PIVV3C72BWcb-1" target="d0bv2SDJFpHMP59VthyJ-1">
          <mxGeometry relative="1" as="geometry">
            <Array as="points">
              <mxPoint x="139" y="140" />
            </Array>
          </mxGeometry>
        </mxCell>
        <mxCell id="IcWSumV9PIVV3C72BWcb-1" value="Nombre" style="ellipse;whiteSpace=wrap;html=1;align=center;" vertex="1" parent="1">
          <mxGeometry x="89" y="40" width="100" height="40" as="geometry" />
        </mxCell>
        <mxCell id="IcWSumV9PIVV3C72BWcb-9" style="edgeStyle=orthogonalEdgeStyle;rounded=0;orthogonalLoop=1;jettySize=auto;html=1;" edge="1" parent="1" source="IcWSumV9PIVV3C72BWcb-2" target="d0bv2SDJFpHMP59VthyJ-1">
          <mxGeometry relative="1" as="geometry">
            <Array as="points">
              <mxPoint x="279" y="120" />
            </Array>
          </mxGeometry>
        </mxCell>
        <mxCell id="IcWSumV9PIVV3C72BWcb-2" value="Apellidos" style="ellipse;whiteSpace=wrap;html=1;align=center;" vertex="1" parent="1">
          <mxGeometry x="229" y="40" width="100" height="40" as="geometry" />
        </mxCell>
        <mxCell id="IcWSumV9PIVV3C72BWcb-13" style="edgeStyle=orthogonalEdgeStyle;rounded=0;orthogonalLoop=1;jettySize=auto;html=1;entryX=1;entryY=0;entryDx=0;entryDy=0;" edge="1" parent="1" source="IcWSumV9PIVV3C72BWcb-4" target="d0bv2SDJFpHMP59VthyJ-1">
          <mxGeometry relative="1" as="geometry">
            <Array as="points">
              <mxPoint x="549" y="120" />
            </Array>
          </mxGeometry>
        </mxCell>
        <mxCell id="IcWSumV9PIVV3C72BWcb-4" value="Dirección" style="ellipse;whiteSpace=wrap;html=1;align=center;" vertex="1" parent="1">
          <mxGeometry x="499" y="40" width="100" height="40" as="geometry" />
        </mxCell>
        <mxCell id="IcWSumV9PIVV3C72BWcb-17" style="edgeStyle=orthogonalEdgeStyle;rounded=0;orthogonalLoop=1;jettySize=auto;html=1;entryX=1;entryY=0.5;entryDx=0;entryDy=0;" edge="1" parent="1" source="IcWSumV9PIVV3C72BWcb-5" target="d0bv2SDJFpHMP59VthyJ-1">
          <mxGeometry relative="1" as="geometry">
            <Array as="points">
              <mxPoint x="690" y="140" />
            </Array>
          </mxGeometry>
        </mxCell>
        <mxCell id="IcWSumV9PIVV3C72BWcb-5" value="Fecha de&lt;br&gt;nacimiento" style="ellipse;whiteSpace=wrap;html=1;align=center;" vertex="1" parent="1">
          <mxGeometry x="639" y="40" width="100" height="40" as="geometry" />
        </mxCell>
        <mxCell id="IcWSumV9PIVV3C72BWcb-16" style="edgeStyle=orthogonalEdgeStyle;rounded=0;orthogonalLoop=1;jettySize=auto;html=1;entryX=0.5;entryY=0;entryDx=0;entryDy=0;" edge="1" parent="1" source="IcWSumV9PIVV3C72BWcb-14" target="d0bv2SDJFpHMP59VthyJ-1">
          <mxGeometry relative="1" as="geometry" />
        </mxCell>
        <mxCell id="IcWSumV9PIVV3C72BWcb-14" value="RFC" style="ellipse;whiteSpace=wrap;html=1;align=center;fontStyle=4;fillColor=#fff2cc;strokeColor=#d6b656;" vertex="1" parent="1">
          <mxGeometry x="364" y="40" width="100" height="40" as="geometry" />
        </mxCell>
        <mxCell id="IcWSumV9PIVV3C72BWcb-18" value="Producto" style="whiteSpace=wrap;html=1;align=center;fillColor=#f8cecc;strokeColor=#b85450;" vertex="1" parent="1">
          <mxGeometry x="114" y="330" width="100" height="40" as="geometry" />
        </mxCell>
        <mxCell id="IcWSumV9PIVV3C72BWcb-22" value="-" style="edgeStyle=orthogonalEdgeStyle;rounded=0;orthogonalLoop=1;jettySize=auto;html=1;" edge="1" parent="1" source="IcWSumV9PIVV3C72BWcb-19" target="IcWSumV9PIVV3C72BWcb-18">
          <mxGeometry relative="1" as="geometry">
            <Array as="points">
              <mxPoint x="40" y="350" />
            </Array>
          </mxGeometry>
        </mxCell>
        <mxCell id="IcWSumV9PIVV3C72BWcb-19" value="Nombre" style="ellipse;whiteSpace=wrap;html=1;align=center;" vertex="1" parent="1">
          <mxGeometry x="-10" y="410" width="100" height="40" as="geometry" />
        </mxCell>
        <mxCell id="IcWSumV9PIVV3C72BWcb-25" style="edgeStyle=orthogonalEdgeStyle;rounded=0;orthogonalLoop=1;jettySize=auto;html=1;entryX=0.5;entryY=1;entryDx=0;entryDy=0;" edge="1" parent="1" source="IcWSumV9PIVV3C72BWcb-20" target="IcWSumV9PIVV3C72BWcb-18">
          <mxGeometry relative="1" as="geometry" />
        </mxCell>
        <mxCell id="IcWSumV9PIVV3C72BWcb-20" value="Precio" style="ellipse;whiteSpace=wrap;html=1;align=center;" vertex="1" parent="1">
          <mxGeometry x="114" y="410" width="100" height="40" as="geometry" />
        </mxCell>
        <mxCell id="IcWSumV9PIVV3C72BWcb-24" style="edgeStyle=orthogonalEdgeStyle;rounded=0;orthogonalLoop=1;jettySize=auto;html=1;entryX=1;entryY=0.5;entryDx=0;entryDy=0;" edge="1" parent="1" source="IcWSumV9PIVV3C72BWcb-21" target="IcWSumV9PIVV3C72BWcb-18">
          <mxGeometry relative="1" as="geometry">
            <Array as="points">
              <mxPoint x="290" y="370" />
              <mxPoint x="214" y="370" />
            </Array>
          </mxGeometry>
        </mxCell>
        <mxCell id="IcWSumV9PIVV3C72BWcb-21" value="Código" style="ellipse;whiteSpace=wrap;html=1;align=center;fontStyle=4;fillColor=#f8cecc;strokeColor=#b85450;" vertex="1" parent="1">
          <mxGeometry x="240" y="410" width="100" height="40" as="geometry" />
        </mxCell>
        <mxCell id="IcWSumV9PIVV3C72BWcb-31" style="edgeStyle=orthogonalEdgeStyle;rounded=0;orthogonalLoop=1;jettySize=auto;html=1;entryX=0.5;entryY=0;entryDx=0;entryDy=0;" edge="1" parent="1" source="IcWSumV9PIVV3C72BWcb-27" target="IcWSumV9PIVV3C72BWcb-18">
          <mxGeometry relative="1" as="geometry" />
        </mxCell>
        <mxCell id="IcWSumV9PIVV3C72BWcb-27" value="Compra" style="shape=rhombus;perimeter=rhombusPerimeter;whiteSpace=wrap;html=1;align=center;" vertex="1" parent="1">
          <mxGeometry x="354" y="250" width="120" height="60" as="geometry" />
        </mxCell>
        <mxCell id="IcWSumV9PIVV3C72BWcb-47" style="edgeStyle=orthogonalEdgeStyle;rounded=0;orthogonalLoop=1;jettySize=auto;html=1;entryX=0.5;entryY=1;entryDx=0;entryDy=0;" edge="1" parent="1" source="IcWSumV9PIVV3C72BWcb-32" target="IcWSumV9PIVV3C72BWcb-46">
          <mxGeometry relative="1" as="geometry" />
        </mxCell>
        <mxCell id="IcWSumV9PIVV3C72BWcb-32" value="Proveedor" style="whiteSpace=wrap;html=1;align=center;fillColor=#d5e8d4;strokeColor=#82b366;" vertex="1" parent="1">
          <mxGeometry x="558" y="465" width="100" height="40" as="geometry" />
        </mxCell>
        <mxCell id="IcWSumV9PIVV3C72BWcb-33" value="1" style="text;strokeColor=none;fillColor=none;spacingLeft=4;spacingRight=4;overflow=hidden;rotatable=0;points=[[0,0.5],[1,0.5]];portConstraint=eastwest;fontSize=12;whiteSpace=wrap;html=1;" vertex="1" parent="1">
          <mxGeometry x="394" y="160" width="20" height="20" as="geometry" />
        </mxCell>
        <mxCell id="IcWSumV9PIVV3C72BWcb-35" value="N" style="text;strokeColor=none;fillColor=none;spacingLeft=4;spacingRight=4;overflow=hidden;rotatable=0;points=[[0,0.5],[1,0.5]];portConstraint=eastwest;fontSize=12;whiteSpace=wrap;html=1;" vertex="1" parent="1">
          <mxGeometry x="394" y="220" width="20" height="20" as="geometry" />
        </mxCell>
        <mxCell id="IcWSumV9PIVV3C72BWcb-36" value="1" style="text;strokeColor=none;fillColor=none;spacingLeft=4;spacingRight=4;overflow=hidden;rotatable=0;points=[[0,0.5],[1,0.5]];portConstraint=eastwest;fontSize=12;whiteSpace=wrap;html=1;" vertex="1" parent="1">
          <mxGeometry x="140" y="280" width="20" height="20" as="geometry" />
        </mxCell>
        <mxCell id="IcWSumV9PIVV3C72BWcb-37" value="N" style="text;strokeColor=none;fillColor=none;spacingLeft=4;spacingRight=4;overflow=hidden;rotatable=0;points=[[0,0.5],[1,0.5]];portConstraint=eastwest;fontSize=12;whiteSpace=wrap;html=1;" vertex="1" parent="1">
          <mxGeometry x="340" y="280" width="20" height="20" as="geometry" />
        </mxCell>
        <mxCell id="IcWSumV9PIVV3C72BWcb-38" value="N:M" style="text;strokeColor=none;fillColor=none;spacingLeft=4;spacingRight=4;overflow=hidden;rotatable=0;points=[[0,0.5],[1,0.5]];portConstraint=eastwest;fontSize=12;whiteSpace=wrap;html=1;" vertex="1" parent="1">
          <mxGeometry x="474" y="270" width="36" height="20" as="geometry" />
        </mxCell>
        <mxCell id="IcWSumV9PIVV3C72BWcb-43" style="edgeStyle=orthogonalEdgeStyle;rounded=0;orthogonalLoop=1;jettySize=auto;html=1;entryX=0;entryY=0.5;entryDx=0;entryDy=0;" edge="1" parent="1" source="IcWSumV9PIVV3C72BWcb-39" target="IcWSumV9PIVV3C72BWcb-32">
          <mxGeometry relative="1" as="geometry">
            <Array as="points">
              <mxPoint x="480" y="485" />
            </Array>
          </mxGeometry>
        </mxCell>
        <mxCell id="IcWSumV9PIVV3C72BWcb-39" value="Nombre" style="ellipse;whiteSpace=wrap;html=1;align=center;" vertex="1" parent="1">
          <mxGeometry x="430" y="545" width="100" height="40" as="geometry" />
        </mxCell>
        <mxCell id="IcWSumV9PIVV3C72BWcb-45" style="edgeStyle=orthogonalEdgeStyle;rounded=0;orthogonalLoop=1;jettySize=auto;html=1;entryX=0.5;entryY=1;entryDx=0;entryDy=0;" edge="1" parent="1" source="IcWSumV9PIVV3C72BWcb-41" target="IcWSumV9PIVV3C72BWcb-32">
          <mxGeometry relative="1" as="geometry" />
        </mxCell>
        <mxCell id="IcWSumV9PIVV3C72BWcb-41" value="Dirección" style="ellipse;whiteSpace=wrap;html=1;align=center;" vertex="1" parent="1">
          <mxGeometry x="558" y="545" width="100" height="40" as="geometry" />
        </mxCell>
        <mxCell id="IcWSumV9PIVV3C72BWcb-44" style="edgeStyle=orthogonalEdgeStyle;rounded=0;orthogonalLoop=1;jettySize=auto;html=1;entryX=1;entryY=0.5;entryDx=0;entryDy=0;" edge="1" parent="1" source="IcWSumV9PIVV3C72BWcb-42" target="IcWSumV9PIVV3C72BWcb-32">
          <mxGeometry relative="1" as="geometry">
            <Array as="points">
              <mxPoint x="728" y="485" />
            </Array>
          </mxGeometry>
        </mxCell>
        <mxCell id="IcWSumV9PIVV3C72BWcb-42" value="RFC" style="ellipse;whiteSpace=wrap;html=1;align=center;fontStyle=4;fillColor=#d5e8d4;strokeColor=#82b366;" vertex="1" parent="1">
          <mxGeometry x="678" y="545" width="100" height="40" as="geometry" />
        </mxCell>
        <mxCell id="IcWSumV9PIVV3C72BWcb-48" style="edgeStyle=orthogonalEdgeStyle;rounded=0;orthogonalLoop=1;jettySize=auto;html=1;" edge="1" parent="1" source="IcWSumV9PIVV3C72BWcb-46" target="IcWSumV9PIVV3C72BWcb-18">
          <mxGeometry relative="1" as="geometry">
            <Array as="points">
              <mxPoint x="470" y="350" />
              <mxPoint x="470" y="350" />
            </Array>
          </mxGeometry>
        </mxCell>
        <mxCell id="IcWSumV9PIVV3C72BWcb-46" value="Surte" style="shape=rhombus;perimeter=rhombusPerimeter;whiteSpace=wrap;html=1;align=center;" vertex="1" parent="1">
          <mxGeometry x="548" y="320" width="120" height="60" as="geometry" />
        </mxCell>
        <mxCell id="IcWSumV9PIVV3C72BWcb-49" value="1" style="text;strokeColor=none;fillColor=none;spacingLeft=4;spacingRight=4;overflow=hidden;rotatable=0;points=[[0,0.5],[1,0.5]];portConstraint=eastwest;fontSize=12;whiteSpace=wrap;html=1;" vertex="1" parent="1">
          <mxGeometry x="229" y="330" width="20" height="20" as="geometry" />
        </mxCell>
        <mxCell id="IcWSumV9PIVV3C72BWcb-50" value="1" style="text;strokeColor=none;fillColor=none;spacingLeft=4;spacingRight=4;overflow=hidden;rotatable=0;points=[[0,0.5],[1,0.5]];portConstraint=eastwest;fontSize=12;whiteSpace=wrap;html=1;" vertex="1" parent="1">
          <mxGeometry x="528" y="350" width="20" height="20" as="geometry" />
        </mxCell>
        <mxCell id="IcWSumV9PIVV3C72BWcb-51" value="1" style="text;strokeColor=none;fillColor=none;spacingLeft=4;spacingRight=4;overflow=hidden;rotatable=0;points=[[0,0.5],[1,0.5]];portConstraint=eastwest;fontSize=12;whiteSpace=wrap;html=1;" vertex="1" parent="1">
          <mxGeometry x="528" y="330" width="20" height="20" as="geometry" />
        </mxCell>
        <mxCell id="IcWSumV9PIVV3C72BWcb-52" value="N" style="text;strokeColor=none;fillColor=none;spacingLeft=4;spacingRight=4;overflow=hidden;rotatable=0;points=[[0,0.5],[1,0.5]];portConstraint=eastwest;fontSize=12;whiteSpace=wrap;html=1;" vertex="1" parent="1">
          <mxGeometry x="229" y="350" width="20" height="20" as="geometry" />
        </mxCell>
        <mxCell id="IcWSumV9PIVV3C72BWcb-61" style="edgeStyle=orthogonalEdgeStyle;rounded=0;orthogonalLoop=1;jettySize=auto;html=1;" edge="1" parent="1">
          <mxGeometry relative="1" as="geometry">
            <mxPoint x="630" y="230" as="sourcePoint" />
            <mxPoint x="460" y="270" as="targetPoint" />
            <Array as="points">
              <mxPoint x="630" y="270" />
            </Array>
          </mxGeometry>
        </mxCell>
        <mxCell id="IcWSumV9PIVV3C72BWcb-62" style="edgeStyle=orthogonalEdgeStyle;rounded=0;orthogonalLoop=1;jettySize=auto;html=1;" edge="1" parent="1" target="IcWSumV9PIVV3C72BWcb-27">
          <mxGeometry relative="1" as="geometry">
            <mxPoint x="490" y="260" as="targetPoint" />
            <mxPoint x="520" y="230" as="sourcePoint" />
            <Array as="points">
              <mxPoint x="520" y="260" />
            </Array>
          </mxGeometry>
        </mxCell>
        <mxCell id="IcWSumV9PIVV3C72BWcb-65" value="&lt;span style=&quot;border-bottom: 1px dotted&quot;&gt;Id producto&lt;/span&gt;" style="ellipse;whiteSpace=wrap;html=1;align=center;" vertex="1" parent="1">
          <mxGeometry x="474" y="190" width="100" height="40" as="geometry" />
        </mxCell>
        <mxCell id="IcWSumV9PIVV3C72BWcb-67" value="&lt;span style=&quot;border-bottom: 1px dotted&quot;&gt;Id cliente&lt;/span&gt;" style="ellipse;whiteSpace=wrap;html=1;align=center;" vertex="1" parent="1">
          <mxGeometry x="578" y="190" width="100" height="40" as="geometry" />
        </mxCell>
        <mxCell id="IcWSumV9PIVV3C72BWcb-72" style="edgeStyle=orthogonalEdgeStyle;rounded=0;orthogonalLoop=1;jettySize=auto;html=1;entryX=0;entryY=0.25;entryDx=0;entryDy=0;" edge="1" parent="1" source="IcWSumV9PIVV3C72BWcb-71" target="IcWSumV9PIVV3C72BWcb-18">
          <mxGeometry relative="1" as="geometry" />
        </mxCell>
        <mxCell id="IcWSumV9PIVV3C72BWcb-71" value="&lt;span style=&quot;border-bottom: 1px dotted&quot;&gt;Id Proveedor&lt;/span&gt;" style="ellipse;whiteSpace=wrap;html=1;align=center;" vertex="1" parent="1">
          <mxGeometry x="14" y="280" width="100" height="40" as="geometry" />
        </mxCell>
      </root>
    </mxGraphModel>
  </diagram>
</mxfile>
